HIERARCHY
ROOT Hips
{
	OFFSET 0.00 0.00 0.00
	CHANNELS 6 Xposition Yposition Zposition Xrotation Yrotation Zrotation
	JOINT Spine
	{
		OFFSET 0.00000 7.53995 0.00000
		CHANNELS 3 Xrotation Yrotation Zrotation
		JOINT Head
		{
			OFFSET 0.00000 15.09381 0.00000
			CHANNELS 3 Xrotation Yrotation Zrotation
			End Site
			{
				OFFSET 0.00000 4.52755 0.00000
			}
		}
		JOINT LeftShoulder
		{
			OFFSET 0.00000 9.73893 0.00000
			CHANNELS 3 Xrotation Yrotation Zrotation
			JOINT LeftArm
			{
				OFFSET 7.08401 0.00000 0.00000
				CHANNELS 3 Xrotation Yrotation Zrotation
				JOINT LeftForeArm
				{
					OFFSET 10.25932 0.00000 0.00000
					CHANNELS 3 Yrotation Zrotation Xrotation
					JOINT LeftHand
					{
						OFFSET 9.89698 0.00000 0.00000
						CHANNELS 3 Xrotation Yrotation Zrotation
						JOINT LeftHandThumb1
						{
							OFFSET 0.00000 0.00000 0.00000
							CHANNELS 3 Xrotation Zrotation Yrotation
							End Site
							{
								OFFSET 0.00000 0.00000 3.93700
							}
						}
						End Site
						{
							OFFSET 3.93700 0.00000 0.00000
						}
					}
				}
			}
		}
		JOINT RightShoulder
		{
			OFFSET 0.00000 9.73893 0.00000
			CHANNELS 3 Xrotation Yrotation Zrotation
			JOINT RightArm
			{
				OFFSET -7.08401 0.00000 0.00000
				CHANNELS 3 Xrotation Yrotation Zrotation
				JOINT RightForeArm
				{
					OFFSET -10.25932 0.00000 0.00000
					CHANNELS 3 Yrotation Zrotation Xrotation
					JOINT RightHand
					{
						OFFSET -9.89698 0.00000 0.00000
						CHANNELS 3 Xrotation Yrotation Zrotation
						JOINT RightHandThumb1
						{
							OFFSET 0.00000 0.00000 0.00000
							CHANNELS 3 Xrotation Zrotation Yrotation
							End Site
							{
								OFFSET 0.00000 0.00000 3.93700
							}
						}
						End Site
						{
							OFFSET -3.93700 0.00000 0.00000
						}
					}
				}
			}
		}
	}
	JOINT LeftUpLeg
	{
		OFFSET 3.34548 0.00000 0.00000
		CHANNELS 3 Xrotation Yrotation Zrotation
		JOINT LeftLeg
		{
			OFFSET 0.00000 -19.11473 0.00000
			CHANNELS 3 Xrotation Yrotation Zrotation
			JOINT LeftFoot
			{
				OFFSET 0.00000 -16.04560 0.00000
				CHANNELS 3 Xrotation Yrotation Zrotation
				JOINT LeftToeBase
				{
					OFFSET 0.00000 -1.43467 5.35428
					CHANNELS 3 Xrotation Yrotation Zrotation
					End Site
					{
						OFFSET 0.00000 0.00000 2.95275
					}
				}
			}
		}
	}
	JOINT RightUpLeg
	{
		OFFSET -3.34548 0.00000 0.00000
		CHANNELS 3 Xrotation Yrotation Zrotation
		JOINT RightLeg
		{
			OFFSET 0.00000 -19.11473 0.00000
			CHANNELS 3 Xrotation Yrotation Zrotation
			JOINT RightFoot
			{
				OFFSET 0.00000 -16.04560 0.00000
				CHANNELS 3 Xrotation Yrotation Zrotation
				JOINT RightToeBase
				{
					OFFSET 0.00000 -1.43467 5.35428
					CHANNELS 3 Xrotation Yrotation Zrotation
					End Site
					{
						OFFSET 0.00000 0.00000 2.95275
					}
				}
			}
		}
	}
}
MOTION
Frames: 15
Frame Time: 0.008333
 0.0363 37.5376 6.4377 -38.6097 8.4129 8.5842 50.1297 -4.4053 -0.6444 -7.7130 -0.4908 2.6663 -24.2910 -5.0589 22.2500 -24.5140 15.1077 -18.0365 -1.1883 0.0000 29.0274 4.7617 17.7660 -15.2694 33.1476 -0.0000 26.2537 -1.2645 -6.1980 -26.4222 -37.1943 -18.6541 20.2035 7.2593 -0.0000 -177.4973 0.1102 1.5417 -4.0904 32.8623 0.0000 -24.3270 46.0064 5.9495 3.3624 -1.0206 -0.0000 0.0000 -5.3529 8.9246 -14.8363 14.0294 0.0000 0.0000 44.3215 -32.8984 -7.0121 -1.2166 -0.0000 -0.0000 0.9825 -1.9064 25.4009 7.8781 -0.0000 0.0000
 0.0392 37.5379 6.4352 -38.6133 8.4064 8.5800 50.1312 -4.4060 -0.6446 -7.7598 -0.4827 2.7037 -24.3076 -5.0576 22.2434 -24.4645 15.0973 -18.0391 -1.1991 0.0000 29.0044 4.7631 17.7635 -15.2757 33.1476 -0.0000 26.2537 -1.2562 -6.1969 -26.4122 -37.2026 -18.6597 20.2073 7.2645 -0.0000 -177.5041 0.1132 1.6008 -4.0444 32.8623 0.0000 -24.3270 45.9932 5.9353 3.3597 -0.9894 0.0000 0.0000 -5.4063 9.0388 -14.9677 14.2774 0.0000 -0.0000 44.3132 -32.9181 -7.0205 -1.2161 0.0000 0.0000 0.9871 -1.8755 25.3854 7.8502 -0.0000 0.0000
 0.0448 37.5373 6.4333 -38.6282 8.4702 8.6330 50.1256 -4.4897 -0.6446 -7.7416 -0.4958 2.6976 -24.2817 -5.0488 22.2569 -24.4657 15.0843 -18.0459 -1.2131 0.0000 28.9732 4.7638 17.7682 -15.2740 33.1476 -0.0000 26.2537 -1.2568 -6.1974 -26.3934 -37.1842 -18.6628 20.2236 7.2770 -0.0000 -177.5020 0.1115 1.5763 -4.0455 32.8623 0.0000 -24.3270 45.9735 5.8030 3.3632 -0.9479 0.0000 0.0000 -5.4357 9.0880 -14.9555 14.2708 0.0000 -0.0000 44.3153 -33.0538 -7.0259 -1.2165 -0.0000 -0.0000 0.9996 -1.8140 25.4119 7.8449 0.0000 0.0000
 0.0470 37.5373 6.4310 -38.6422 8.4849 8.6438 50.1338 -4.5210 -0.6424 -7.7472 -0.4855 2.6848 -24.2805 -5.0450 22.2669 -24.4915 15.1011 -18.0434 -1.2256 0.0000 28.9976 4.7574 17.7636 -15.2583 33.1476 -0.0000 26.2537 -1.2503 -6.1895 -26.3903 -37.2046 -18.6809 20.2351 7.2814 -0.0000 -177.4865 0.1083 1.5394 -4.0230 32.8623 0.0000 -24.3270 45.9717 5.7543 3.3653 -0.9245 -0.0000 -0.0000 -5.4521 9.1211 -14.9494 14.2645 -0.0000 0.0000 44.3270 -33.0791 -7.0245 -1.2193 0.0000 -0.0000 0.9920 -1.8182 25.4038 7.8750 -0.0000 0.0000
 0.0469 37.5382 6.4291 -38.6487 8.4129 8.6024 50.1489 -4.4726 -0.6572 -7.7598 -0.4579 2.6742 -24.2703 -5.0141 22.2586 -24.4968 15.0943 -18.0440 -1.2279 0.0000 28.9840 4.7592 17.7576 -15.2684 33.1476 -0.0000 26.2537 -1.2506 -6.1624 -26.3838 -37.2004 -18.6649 20.2336 7.2713 -0.0000 -177.4899 0.1162 1.7345 -3.8318 32.8623 0.0000 -24.3270 45.9834 5.8208 3.3459 -0.9001 -0.0000 0.0000 -5.4558 9.1263 -14.9393 14.2841 0.0000 -0.0000 44.3113 -33.0047 -7.0507 -1.2045 -0.0000 0.0000 0.9898 -1.8134 25.3868 7.8502 -0.0000 0.0000
 0.0483 37.5379 6.4267 -38.6481 8.3754 8.5739 50.1513 -4.4453 -0.6566 -7.7772 -0.4658 2.6698 -24.2816 -5.0112 22.2606 -24.4539 15.1063 -18.0669 -1.2425 0.0000 28.9541 4.7527 17.7665 -15.2414 33.1476 -0.0000 26.2537 -1.2543 -6.1472 -26.3952 -37.1875 -18.6655 20.2540 7.2649 -0.0000 -177.4860 0.1085 1.5464 -4.0135 32.8623 0.0000 -24.3270 45.9796 5.8509 3.3369 -0.8712 -0.0000 0.0000 -5.4783 9.1420 -14.9376 14.2850 0.0000 -0.0000 44.2970 -32.9617 -7.0625 -1.1940 0.0000 0.0000 0.9867 -1.8164 25.3783 7.8759 0.0000 0.0000
 0.0499 37.5382 6.4247 -38.6613 8.3375 8.5568 50.1658 -4.4226 -0.6669 -7.7862 -0.4159 2.6285 -24.2695 -5.0048 22.2756 -24.4693 15.1318 -18.0930 -1.2655 0.0000 28.9649 4.7616 17.7755 -15.2616 33.1476 -0.0000 26.2537 -1.2427 -6.1386 -26.3978 -37.1892 -18.6593 20.2680 7.2420 -0.0000 -177.4792 0.1064 1.5034 -4.0482 32.8623 0.0000 -24.3270 45.9923 5.8711 3.3205 -0.8436 -0.0000 0.0000 -5.4599 9.0595 -14.7776 14.0141 0.0000 0.0000 44.2932 -32.9287 -7.0828 -1.1821 -0.0000 -0.0000 0.9747 -1.8200 25.3852 7.9001 0.0000 0.0000
 0.0506 37.5386 6.4233 -38.6740 8.2916 8.5267 50.1836 -4.3780 -0.6681 -7.7913 -0.4173 2.6077 -24.2679 -5.0023 22.2728 -24.4647 15.1272 -18.1154 -1.2537 0.0000 28.9470 4.7683 17.7911 -15.2697 33.1476 -0.0000 26.2537 -1.2269 -6.1438 -26.4047 -37.1995 -18.6588 20.2811 7.2391 -0.0000 -177.4723 0.1179 1.6736 -4.0287 32.8623 0.0000 -24.3270 46.0092 5.9039 3.3135 -0.8368 0.0000 0.0000 -5.4945 9.1686 -14.9122 14.2702 0.0000 -0.0000 44.2952 -32.8812 -7.0949 -1.1782 -0.0000 0.0000 0.9881 -1.8054 25.3691 7.8567 0.0000 -0.0000
 0.0518 37.5384 6.4206 -38.6687 8.2629 8.5041 50.1821 -4.3598 -0.6714 -7.7804 -0.4019 2.5812 -24.2656 -4.9892 22.2770 -24.4404 15.1243 -18.1428 -1.2650 0.0000 28.9245 4.7784 17.7988 -15.2946 33.1476 -0.0000 26.2537 -1.2180 -6.1454 -26.3998 -37.2084 -18.6382 20.2936 7.2168 -0.0000 -177.4617 0.1151 1.6318 -4.0342 32.8623 0.0000 -24.3270 45.9986 5.9294 3.3042 -0.8013 0.0000 -0.0000 -5.4937 9.0817 -14.7723 14.0426 0.0000 -0.0000 44.2801 -32.8340 -7.1052 -1.1690 0.0000 0.0000 0.9812 -1.8230 25.3778 7.8607 0.0000 -0.0000
 0.0528 37.5384 6.4185 -38.6738 8.2209 8.4743 50.1888 -4.3276 -0.6687 -7.7945 -0.4069 2.5841 -24.2568 -4.9783 22.2665 -24.4343 15.1104 -18.1599 -1.2397 0.0000 28.9119 4.7775 17.7877 -15.3008 33.1476 -0.0000 26.2537 -1.2111 -6.1351 -26.4122 -37.2011 -18.6375 20.3105 7.2202 -0.0000 -177.4644 0.1143 1.5773 -4.1444 32.8623 0.0000 -24.3270 46.0044 5.9740 3.2962 -0.7902 0.0000 -0.0000 -5.5303 9.1784 -14.9208 14.2874 0.0000 -0.0000 44.2730 -32.7918 -7.1175 -1.1653 0.0000 0.0000 0.9814 -1.8095 25.3820 7.8439 0.0000 0.0000
 0.0536 37.5384 6.4162 -38.6732 8.1895 8.4517 50.1928 -4.3034 -0.6712 -7.7820 -0.3962 2.5526 -24.2498 -4.9773 22.2708 -24.4201 15.1237 -18.1907 -1.2496 0.0000 28.8968 4.7837 17.7953 -15.3136 33.1476 -0.0000 26.2537 -1.2066 -6.1401 -26.4080 -37.1920 -18.6187 20.3263 7.2175 -0.0000 -177.4764 0.1154 1.5820 -4.1715 32.8623 0.0000 -24.3270 46.0020 5.9907 3.2895 -0.7735 -0.0000 -0.0000 -5.5306 9.1925 -14.9072 14.2471 0.0000 0.0000 44.2639 -32.7521 -7.1261 -1.1609 -0.0000 -0.0000 0.9747 -1.8186 25.3731 7.8802 0.0000 -0.0000
 0.0549 37.5386 6.4131 -38.6769 8.1831 8.4451 50.1974 -4.3068 -0.6691 -7.7806 -0.3871 2.5420 -24.2545 -4.9849 22.2684 -24.4046 15.1208 -18.2099 -1.2308 0.0000 28.9354 4.8132 17.7747 -15.4205 33.1476 -0.0000 26.2537 -1.1986 -6.1390 -26.4060 -37.1693 -18.6124 20.3466 7.2243 -0.0000 -177.4813 0.1159 1.5899 -4.1718 32.8623 0.0000 -24.3270 45.9924 5.9836 3.2861 -0.7388 -0.0000 0.0000 -5.5226 9.1100 -14.7589 13.9970 0.0000 -0.0000 44.2603 -32.7518 -7.1288 -1.1623 0.0000 0.0000 0.9800 -1.8069 25.3663 7.8330 0.0000 -0.0000
 0.0561 37.5389 6.4106 -38.6793 8.1575 8.4250 50.2035 -4.2963 -0.6666 -7.7764 -0.3639 2.5355 -24.2518 -4.9763 22.2679 -24.3975 15.1159 -18.2330 -1.2129 0.0000 28.9400 4.8176 17.7543 -15.4505 33.1476 -0.0000 26.2537 -1.1759 -6.1477 -26.4062 -37.1868 -18.5987 20.3637 7.2277 -0.0000 -177.4680 0.1214 1.7004 -4.0851 32.8623 0.0000 -24.3270 45.9917 6.0050 3.2834 -0.7306 0.0000 0.0000 -5.5597 9.2199 -14.9207 14.2734 -0.0000 0.0000 44.2512 -32.7331 -7.1386 -1.1575 -0.0000 -0.0000 0.9792 -1.7912 25.3527 7.8781 -0.0000 -0.0000
 0.0554 37.5392 6.4091 -38.6739 8.0857 8.3706 50.2055 -4.2270 -0.6668 -7.8067 -0.3644 2.5512 -24.2334 -4.9620 22.2617 -24.4137 15.1315 -18.2593 -1.2021 0.0000 28.9330 4.7779 17.7298 -15.3480 33.1476 -0.0000 26.2537 -1.1869 -6.1357 -26.4245 -37.1694 -18.6057 20.3791 7.2403 -0.0000 -177.4863 0.1166 1.5747 -4.2339 32.8623 0.0000 -24.3270 46.0024 6.0749 3.2687 -0.7157 -0.0000 -0.0000 -5.5420 9.1315 -14.7637 14.0111 -0.0000 -0.0000 44.2364 -32.6475 -7.1532 -1.1543 -0.0000 -0.0000 0.9928 -1.7796 25.3513 7.8369 -0.0000 0.0000
 0.0553 37.5396 6.4074 -38.6802 8.0423 8.3332 50.2170 -4.1926 -0.6633 -7.8011 -0.3496 2.5373 -24.2383 -4.9599 22.2571 -24.4271 15.1422 -18.2723 -1.1886 0.0000 28.9619 4.7781 17.7208 -15.3559 33.1476 -0.0000 26.2537 -1.1835 -6.1397 -26.4216 -37.1736 -18.5770 20.3865 7.2248 -0.0000 -177.4947 0.1205 1.6876 -4.0840 32.8623 0.0000 -24.3270 46.0166 6.1106 3.2680 -0.7210 -0.0000 -0.0000 -5.5651 9.2418 -14.9133 14.2736 -0.0000 -0.0000 44.2359 -32.5904 -7.1567 -1.1461 -0.0000 0.0000 0.9759 -1.7962 25.3572 7.8938 0.0000 0.0000
